<svg width="30" height="30" viewBox="0 0 30 30" fill="none" xmlns="http://www.w3.org/2000/svg">
<g clip-path="url(#clip0_11_81)">
<path d="M28.4766 0.351562H1.52344C0.875244 0.351562 0.351562 0.875244 0.351562 1.52344V28.4766C0.351562 29.1248 0.875244 29.6484 1.52344 29.6484H28.4766C29.1248 29.6484 29.6484 29.1248 29.6484 28.4766V1.52344C29.6484 0.875244 29.1248 0.351562 28.4766 0.351562ZM25.0928 8.90259H22.7527C20.918 8.90259 20.5627 9.77417 20.5627 11.0559V13.8794H24.9426L24.3713 18.2996H20.5627V29.6484H15.9961V18.3032H12.1765V13.8794H15.9961V10.6201C15.9961 6.83716 18.3069 4.77539 21.6833 4.77539C23.302 4.77539 24.6899 4.89624 25.0964 4.95117V8.90259H25.0928Z" fill="url(#paint0_linear_11_81)"/>
</g>
<defs>
<linearGradient id="paint0_linear_11_81" x1="15" y1="0.351562" x2="15" y2="29.6484" gradientUnits="userSpaceOnUse">
<stop stop-color="#5FF3EA"/>
<stop offset="1" stop-color="#00B3EB"/>
</linearGradient>
<clipPath id="clip0_11_81">
<rect width="30" height="30" fill="white"/>
</clipPath>
</defs>
</svg>
