<svg width="30" height="30" viewBox="0 0 30 30" fill="none" xmlns="http://www.w3.org/2000/svg">
<g clip-path="url(#clip0_11_83)">
<path d="M23.0383 8.76863C24.0362 8.76863 24.8452 7.95964 24.8452 6.96171C24.8452 5.96377 24.0362 5.15479 23.0383 5.15479C22.0404 5.15479 21.2314 5.96377 21.2314 6.96171C21.2314 7.95964 22.0404 8.76863 23.0383 8.76863Z" fill="url(#paint0_linear_11_83)"/>
<path d="M15 7.26782C13.4707 7.26782 11.9758 7.7213 10.7043 8.57092C9.43273 9.42054 8.44169 10.6281 7.85646 12.041C7.27123 13.4539 7.11811 15.0085 7.41646 16.5084C7.7148 18.0083 8.45122 19.386 9.53257 20.4674C10.6139 21.5487 11.9917 22.2852 13.4916 22.5835C14.9914 22.8818 16.5461 22.7287 17.959 22.1435C19.3718 21.5583 20.5794 20.5672 21.429 19.2957C22.2787 18.0241 22.7321 16.5292 22.7321 14.9999C22.7321 12.9493 21.9175 10.9826 20.4674 9.53251C19.0174 8.08245 17.0507 7.26782 15 7.26782ZM15 20.0192C14.0073 20.0192 13.0369 19.7248 12.2115 19.1733C11.3861 18.6218 10.7427 17.8379 10.3628 16.9207C9.98295 16.0036 9.88356 14.9944 10.0772 14.0207C10.2709 13.0471 10.7489 12.1528 11.4509 11.4508C12.1528 10.7489 13.0472 10.2708 14.0208 10.0772C14.9944 9.88349 16.0036 9.98289 16.9208 10.3628C17.8379 10.7427 18.6218 11.386 19.1734 12.2114C19.7249 13.0368 20.0192 14.0072 20.0192 14.9999C20.0192 16.3311 19.4904 17.6078 18.5491 18.5491C17.6079 19.4904 16.3312 20.0192 15 20.0192Z" fill="url(#paint1_linear_11_83)"/>
<path d="M15 2.65528C19.0204 2.65528 19.4972 2.67033 21.0846 2.74311C22.0393 2.75445 22.9849 2.92974 23.8803 3.26135C24.5299 3.51192 25.1198 3.89571 25.6121 4.38801C26.1044 4.88032 26.4882 5.47023 26.7387 6.1198C27.0703 7.01514 27.2456 7.9608 27.257 8.91551C27.3298 10.5028 27.3448 10.9797 27.3448 15.0013C27.3448 19.023 27.3298 19.4973 27.257 21.0846C27.2456 22.0393 27.0703 22.985 26.7387 23.8803C26.4882 24.5299 26.1044 25.1198 25.6121 25.6121C25.1198 26.1044 24.5299 26.4882 23.8803 26.7388C22.9849 27.0704 22.0393 27.2457 21.0846 27.257C19.4972 27.3298 19.0204 27.3449 15 27.3449C10.9796 27.3449 10.5028 27.3298 8.91545 27.257C7.96074 27.2457 7.01508 27.0704 6.11974 26.7388C5.47017 26.4882 4.88026 26.1044 4.38795 25.6121C3.89565 25.1198 3.51186 24.5299 3.26129 23.8803C2.92968 22.985 2.75439 22.0393 2.74305 21.0846C2.67027 19.4973 2.65522 19.0205 2.65522 15.0001C2.65522 10.9797 2.67027 10.5028 2.74305 8.91551C2.75439 7.9608 2.92968 7.01514 3.26129 6.1198C3.51186 5.47023 3.89565 4.88032 4.38795 4.38801C4.88026 3.89571 5.47017 3.51192 6.11974 3.26135C7.01508 2.92974 7.96074 2.75445 8.91545 2.74311C10.5028 2.67033 10.9796 2.65528 15 2.65528M15 -0.0576172C10.9106 -0.0576172 10.3974 -0.0400498 8.79123 0.032729C7.54241 0.0579457 6.3069 0.294694 5.13723 0.732912C4.1368 1.11977 3.22823 1.71138 2.46978 2.46984C1.71132 3.2283 1.1197 4.13686 0.732851 5.13729C0.294494 6.30736 0.0577432 7.5433 0.032668 8.79254C-0.0401109 10.3987 -0.0576782 10.9094 -0.0576782 15.0001C-0.0576782 19.0907 -0.0401109 19.6027 0.032668 21.2089C0.0578847 22.4577 0.294633 23.6932 0.732851 24.8629C1.1197 25.8633 1.71132 26.7719 2.46978 27.5303C3.22823 28.2888 4.1368 28.8804 5.13723 29.2672C6.3073 29.7056 7.54324 29.9423 8.79248 29.9674C10.3986 30.0402 10.9106 30.0578 15 30.0578C19.0894 30.0578 19.6026 30.0402 21.2088 29.9674C22.458 29.9423 23.694 29.7056 24.8641 29.2672C25.8645 28.8804 26.773 28.2888 27.5315 27.5303C28.29 26.7719 28.8816 25.8633 29.2684 24.8629C29.7064 23.6927 29.9427 22.4568 29.9674 21.2076C30.0401 19.6015 30.0577 19.0907 30.0577 15.0001C30.0577 10.9094 30.0401 10.3974 29.9674 8.79129C29.9421 7.54247 29.7054 6.30696 29.2672 5.13729C28.8803 4.13686 28.2887 3.2283 27.5303 2.46984C26.7718 1.71138 25.8632 1.11977 24.8628 0.732912C23.6927 0.294984 22.4567 0.0586572 21.2075 0.0339837C19.6014 -0.0413047 19.0907 -0.0576172 15 -0.0576172Z" fill="url(#paint2_linear_11_83)"/>
</g>
<defs>
<linearGradient id="paint0_linear_11_83" x1="23.0383" y1="5.15479" x2="23.0383" y2="8.76863" gradientUnits="userSpaceOnUse">
<stop stop-color="#5FF3EA"/>
<stop offset="1" stop-color="#00B3EB"/>
</linearGradient>
<linearGradient id="paint1_linear_11_83" x1="15" y1="7.26782" x2="15" y2="22.7321" gradientUnits="userSpaceOnUse">
<stop stop-color="#5FF3EA"/>
<stop offset="1" stop-color="#00B3EB"/>
</linearGradient>
<linearGradient id="paint2_linear_11_83" x1="15" y1="-0.0576172" x2="15" y2="30.0578" gradientUnits="userSpaceOnUse">
<stop stop-color="#5FF3EA"/>
<stop offset="1" stop-color="#00B3EB"/>
</linearGradient>
<clipPath id="clip0_11_83">
<rect width="30" height="30" fill="white"/>
</clipPath>
</defs>
</svg>
