<svg width="30" height="30" viewBox="0 0 30 30" fill="none" xmlns="http://www.w3.org/2000/svg">
<g clip-path="url(#clip0_11_79)">
<path fill-rule="evenodd" clip-rule="evenodd" d="M0.333344 2.72943C0.333344 2.07657 0.591538 1.45045 1.05113 0.988813C1.51072 0.527173 2.13405 0.267826 2.78401 0.267826H27.2133C27.5354 0.267297 27.8545 0.330588 28.1522 0.454076C28.4499 0.577563 28.7205 0.758821 28.9483 0.987472C29.1762 1.21612 29.357 1.48768 29.4802 1.78659C29.6035 2.0855 29.6669 2.40589 29.6667 2.72943V27.2678C29.667 27.5914 29.6039 27.9119 29.4808 28.211C29.3577 28.51 29.1771 28.7818 28.9494 29.0106C28.7216 29.2395 28.4512 29.4211 28.1535 29.5449C27.8559 29.6687 27.5368 29.7323 27.2147 29.7321H2.78401C2.46207 29.7321 2.14329 29.6684 1.84587 29.5446C1.54846 29.4208 1.27824 29.2394 1.05066 29.0106C0.823073 28.7819 0.642586 28.5104 0.519507 28.2116C0.396428 27.9128 0.333169 27.5925 0.333344 27.2692V2.72943ZM11.944 11.5018H15.916V13.5053C16.4893 12.3535 17.956 11.3169 20.16 11.3169C24.3853 11.3169 25.3867 13.6111 25.3867 17.8205V25.6178H21.1107V18.7794C21.1107 16.3821 20.5373 15.0294 19.0813 15.0294C17.0613 15.0294 16.2213 16.4879 16.2213 18.7794V25.6178H11.944V11.5018ZM4.61068 25.4343H8.88801V11.3169H4.61068V25.433V25.4343ZM9.50001 6.71247C9.50808 7.08033 9.44291 7.44611 9.30833 7.78834C9.17375 8.13056 8.97248 8.44234 8.71632 8.70537C8.46016 8.9684 8.15428 9.17739 7.81662 9.32007C7.47896 9.46274 7.11633 9.53624 6.75001 9.53624C6.38369 9.53624 6.02106 9.46274 5.6834 9.32007C5.34575 9.17739 5.03986 8.9684 4.7837 8.70537C4.52754 8.44234 4.32627 8.13056 4.19169 7.78834C4.05711 7.44611 3.99195 7.08033 4.00001 6.71247C4.01584 5.9904 4.31252 5.30326 4.82652 4.79821C5.34053 4.29316 6.03098 4.01035 6.75001 4.01035C7.46905 4.01035 8.1595 4.29316 8.6735 4.79821C9.1875 5.30326 9.48418 5.9904 9.50001 6.71247V6.71247Z" fill="url(#paint0_linear_11_79)"/>
</g>
<defs>
<linearGradient id="paint0_linear_11_79" x1="15" y1="0.267822" x2="15" y2="29.7321" gradientUnits="userSpaceOnUse">
<stop stop-color="#5FF3EA"/>
<stop offset="1" stop-color="#00B3EB"/>
</linearGradient>
<clipPath id="clip0_11_79">
<rect width="30" height="30" fill="white"/>
</clipPath>
</defs>
</svg>
