<svg width="61" height="33" viewBox="0 0 61 33" fill="none" xmlns="http://www.w3.org/2000/svg">
<path fill-rule="evenodd" clip-rule="evenodd" d="M0.679384 0.679382C0.894195 0.464027 1.14938 0.293166 1.43033 0.176586C1.71127 0.0600065 2.01246 1.36282e-10 2.31663 1.5688e-10C2.62081 1.77479e-10 2.92199 0.0600065 3.20294 0.176586C3.48389 0.293166 3.73907 0.464027 3.95388 0.679382L30.0666 26.7968L56.1794 0.679382C56.3944 0.464376 56.6496 0.293823 56.9306 0.177462C57.2115 0.0611011 57.5126 0.00121075 57.8166 0.00121075C58.1207 0.00121075 58.4218 0.0611011 58.7027 0.177462C58.9836 0.293823 59.2389 0.464376 59.4539 0.679382C59.6689 0.894389 59.8394 1.14964 59.9558 1.43056C60.0722 1.71148 60.132 2.01257 60.132 2.31663C60.132 2.6207 60.0722 2.92179 59.9558 3.20271C59.8394 3.48363 59.6689 3.73888 59.4539 3.95388L31.7039 31.7039C31.4891 31.9192 31.2339 32.0901 30.9529 32.2067C30.672 32.3233 30.3708 32.3833 30.0666 32.3833C29.7625 32.3833 29.4613 32.3233 29.1803 32.2067C28.8994 32.0901 28.6442 31.9192 28.4294 31.7039L0.679384 3.95388C0.464029 3.73907 0.293168 3.48389 0.176589 3.20294C0.0600087 2.92199 -1.77479e-10 2.62081 -1.5688e-10 2.31663C-1.36282e-10 2.01246 0.0600087 1.71127 0.176589 1.43033C0.293168 1.14938 0.464029 0.894194 0.679384 0.679382V0.679382Z" fill="#00AFC7"/>
</svg>
