<svg width="59" height="82" viewBox="0 0 59 82" fill="none" xmlns="http://www.w3.org/2000/svg">
<g clip-path="url(#clip0_6_25)">
<path d="M29.464 81.7928L5.45335 75.2232L0.102554 16.0742L58.8974 16.0742L53.5411 75.2142L29.464 81.7928V81.7928Z" fill="#264DE4"/>
<path d="M48.9555 71.4483L53.5326 20.9104H29.5L29.5 76.7642L48.9555 71.4483V71.4483Z" fill="#2965F1"/>
<path d="M12.369 42.848L13.0286 50.1024H29.5V42.848H12.369ZM11.0434 28.165L11.7124 35.4194H29.5V28.165H11.0434V28.165ZM29.5 61.6885L29.4677 61.6969L21.2704 59.5154L20.7463 53.7297H13.3575L14.3886 65.1202L29.4661 69.2452L29.5 69.2361V61.6885Z" fill="#EBEBEB"/>
<path d="M13.9397 0L22.8542 0V3.67433L17.6677 3.67433V7.34865L22.8547 7.34865V11.0228H13.9397V0ZM24.6373 0L33.5521 0V3.19505H28.3654V3.83401H33.5521V11.1827L24.6376 11.1827V7.82748H29.8243V7.18851H24.6371V0L24.6373 0ZM35.3352 0L44.25 0V3.19505L39.0633 3.19505V3.83401L44.25 3.83401V11.1827H35.3352V7.82748L40.5219 7.82748V7.18851L35.3355 7.18851V0L35.3352 0Z" fill="black"/>
<path d="M46.584 42.848L47.9126 28.165H29.4747V35.4194H39.8462L39.1765 42.848H29.4747V50.1024H38.5383L37.6837 59.5108L29.4744 61.6946V69.2418L44.5639 65.1202L44.6745 63.8946L46.4044 44.796L46.584 42.848V42.848Z" fill="white"/>
</g>
<defs>
<clipPath id="clip0_6_25">
<rect width="59" height="82" fill="white"/>
</clipPath>
</defs>
</svg>
