<svg width="56" height="79" viewBox="0 0 56 79" fill="none" xmlns="http://www.w3.org/2000/svg">
<g clip-path="url(#clip0_6_19)">
<path d="M55.9027 15.4862L50.8187 72.4625L27.9659 78.8004L5.17607 72.4712L0.0973511 15.4862H55.9027Z" fill="#E44D26"/>
<path d="M28 73.9558L46.4662 68.8343L50.8106 20.1454H28V73.9558Z" fill="#F16529"/>
<path d="M18.1169 34.1236H28V27.1346H10.4818L10.649 29.0096L12.3662 48.2694H28V41.2805H18.7554L18.1169 34.1236V34.1236ZM19.6914 51.764H12.6783L13.657 62.7378L27.9678 66.7119L28 66.7031V59.4316L27.9694 59.4397L20.1889 57.338L19.6914 51.764Z" fill="#EBEBEB"/>
<path d="M5.28937 0H8.83968V3.50904H12.0875V0H15.638V10.6263H12.0877V7.06798H8.8399V10.6263H5.28959V0H5.28937ZM20.3066 3.52393H17.1815V0H26.9846V3.52393H23.8575V10.6263H20.3072V3.52393H20.307H20.3066ZM28.5403 0H32.2422L34.5194 3.73379L36.7944 0H40.4978V10.6263H36.962V5.35931L34.5194 9.13752H34.4581L32.0141 5.35931V10.6263H28.5403V0ZM42.2647 0H45.8161V7.11394H50.8088V10.6263H42.2645V0H42.2647Z" fill="black"/>
<path d="M27.9759 48.2694H36.5787L35.7676 57.3337L27.9757 59.4375V66.7086L42.2979 62.7378L42.4029 61.557L44.0449 43.1572L44.2153 41.2805H27.9759V48.2694ZM27.9759 34.1066V34.1236H44.851L44.991 32.5528L45.3095 29.0096L45.4764 27.1346H27.9759V34.1068V34.1066Z" fill="white"/>
</g>
<defs>
<clipPath id="clip0_6_19">
<rect width="56" height="79" fill="white"/>
</clipPath>
</defs>
</svg>
