<svg width="53" height="53" viewBox="0 0 53 53" fill="none" xmlns="http://www.w3.org/2000/svg">
<g clip-path="url(#clip0_6_31)">
<path d="M0 0L53 0V53H0L0 0Z" fill="#F7DF1E"/>
<path d="M13.9357 44.2906L17.9914 41.836C18.774 43.2233 19.4858 44.3972 21.1932 44.3972C22.8298 44.3972 23.8618 43.757 23.8618 41.2669V24.3321H28.8424V41.3373C28.8424 46.4958 25.8185 48.844 21.4066 48.844C17.4223 48.844 15.1096 46.7805 13.9355 44.2901M31.5476 43.7568L35.603 41.4089C36.6706 43.1523 38.0581 44.433 40.5127 44.433C42.5766 44.433 43.8925 43.4011 43.8925 41.978C43.8925 40.2704 42.5406 39.6655 40.2636 38.6697L39.0188 38.1355C35.4253 36.6062 33.0418 34.6849 33.0418 30.6292C33.0418 26.8935 35.8878 24.0472 40.3351 24.0472C43.5014 24.0472 45.7783 25.1503 47.4147 28.032L43.5366 30.5226C42.6826 28.9928 41.758 28.3881 40.3349 28.3881C38.8761 28.3881 37.9511 29.3131 37.9511 30.5226C37.9511 32.0167 38.8761 32.6219 41.0106 33.5469L42.2557 34.0804C46.4895 35.895 48.873 37.7448 48.873 41.907C48.873 46.3901 45.351 48.8446 40.6193 48.8446C35.9945 48.8446 33.006 46.6389 31.5474 43.757" fill="black"/>
</g>
<defs>
<clipPath id="clip0_6_31">
<rect width="53" height="53" fill="white"/>
</clipPath>
</defs>
</svg>
