<svg width="64" height="72" viewBox="0 0 64 72" fill="none" xmlns="http://www.w3.org/2000/svg">
<g clip-path="url(#clip0_24_41)">
<path d="M31.9998 71.8663C31.0061 71.8663 30.0786 71.6023 29.2174 71.1401L20.4058 65.9242C19.0808 65.198 19.7433 64.9339 20.1408 64.8019C21.9295 64.2077 22.2608 64.0756 24.1157 63.0191C24.3147 62.887 24.5797 62.953 24.7782 63.0851L31.536 67.1126C31.801 67.2446 32.1323 67.2446 32.331 67.1126L58.7654 51.8613C59.0304 51.7293 59.1629 51.4652 59.1629 51.1351V20.698C59.1629 20.3679 59.0304 20.1038 58.7654 19.9718L32.331 4.78626C32.066 4.65421 31.7348 4.65421 31.536 4.78626L5.10165 19.972C4.83666 20.1041 4.70416 20.4342 4.70416 20.6983V51.1351C4.70416 51.3992 4.83666 51.7293 5.10165 51.8613L12.3232 56.0206C16.2321 58.0012 18.6831 55.6905 18.6831 53.3798V23.3388C18.6831 22.9427 19.0146 22.5466 19.4783 22.5466H22.8572C23.2547 22.5466 23.6522 22.8767 23.6522 23.3388V53.3795C23.6522 58.5954 20.8033 61.6324 15.8344 61.6324C14.3107 61.6324 13.1182 61.6324 9.73955 59.9819L2.78296 56.0206C1.06049 55.03 0.000518799 53.1815 0.000518799 51.2008V20.7643C0.000518799 18.7837 1.06049 16.9351 2.78296 15.9445L29.2174 0.693218C30.8736 -0.231073 33.126 -0.231073 34.7822 0.693218L61.2166 15.9445C62.9391 16.9348 63.9991 18.7834 63.9991 20.7643V51.2011C63.9991 53.1817 62.9391 55.0303 61.2166 56.0206L34.7822 71.2724C33.921 71.6685 32.9273 71.8666 31.9998 71.8666V71.8663ZM40.1486 50.9368C28.5546 50.9368 26.1697 45.6551 26.1697 41.1654C26.1697 40.7693 26.5009 40.3732 26.9647 40.3732H30.4096C30.8071 40.3732 31.1386 40.6373 31.1386 41.0334C31.6685 44.5325 33.1923 46.2493 40.2149 46.2493C45.78 46.2493 48.1652 44.9949 48.1652 42.024C48.1652 40.3072 47.5027 39.0528 38.8236 38.1943C31.6023 37.468 27.0972 35.8835 27.0972 30.1397C27.0972 24.7915 31.602 21.6225 39.1549 21.6225C47.6349 21.6225 51.8088 24.5275 52.3388 30.8657C52.3388 31.0638 52.2726 31.2618 52.1401 31.4599C52.0076 31.5919 51.8088 31.724 51.6101 31.724H48.1652C47.8337 31.724 47.5027 31.4599 47.4362 31.1298C46.6412 27.4986 44.5875 26.3103 39.1549 26.3103C33.06 26.3103 32.331 28.4229 32.331 30.0074C32.331 31.9223 33.1923 32.5162 41.4073 33.5726C49.5564 34.6289 53.3988 36.1476 53.3988 41.8256C53.3326 47.6357 48.5627 50.9368 40.1486 50.9368V50.9368Z" fill="#539E43"/>
</g>
<defs>
<clipPath id="clip0_24_41">
<rect width="64" height="72" fill="white"/>
</clipPath>
</defs>
</svg>
