<svg width="61" height="61" viewBox="0 0 61 61" fill="none" xmlns="http://www.w3.org/2000/svg">
<path d="M30.5 35.2161C33.132 35.2161 35.2656 33.0824 35.2656 30.4504C35.2656 27.8185 33.132 25.6848 30.5 25.6848C27.868 25.6848 25.7344 27.8185 25.7344 30.4504C25.7344 33.0824 27.868 35.2161 30.5 35.2161Z" fill="#00D8FF"/>
<path d="M30.5 41.3772C24.772 41.5157 19.0583 40.7436 13.5725 39.0897C11.0384 38.2864 8.67484 37.0209 6.60134 35.3572C5.81012 34.7889 5.15121 34.0561 4.66982 33.2092C4.18844 32.3622 3.89597 31.4212 3.8125 30.4505C3.8125 27.2995 7.27425 24.2114 13.0731 22.1908C18.7055 20.4003 24.5905 19.5326 30.5 19.6211C36.3307 19.5397 42.1368 20.3917 47.6982 22.145C50.1387 22.9231 52.4221 24.1274 54.4425 25.7021C55.2202 26.2439 55.8692 26.9501 56.3436 27.7707C56.818 28.5913 57.1061 29.5062 57.1875 30.4505C57.1875 33.7255 53.3178 37.0443 47.0844 39.1068C41.7048 40.7069 36.1117 41.4726 30.5 41.3772V41.3772ZM30.5 21.901C24.8463 21.8254 19.2166 22.6504 13.8222 24.3448C8.48472 26.2072 6.09238 28.754 6.09238 30.4448C6.09238 32.2138 8.66391 34.9951 14.3102 36.9261C19.5583 38.5004 25.0226 39.2332 30.5 39.0973C35.8688 39.1933 41.2206 38.4669 46.3695 36.9432C52.2313 35.0008 54.9 32.2157 54.9 30.4505C54.8038 29.8448 54.5831 29.2656 54.2517 28.7495C53.9203 28.2333 53.4855 27.7916 52.9747 27.452C51.1671 26.055 49.1273 24.9877 46.949 24.2991C41.6287 22.6287 36.0757 21.8192 30.5 21.901V21.901Z" fill="#00D8FF"/>
<path d="M19.6725 54.2194C18.7832 54.2398 17.9045 54.0241 17.1258 53.5942C14.396 52.0196 13.4505 47.4789 14.5962 41.4456C15.8593 35.6718 18.048 30.1402 21.0774 25.0652C23.9191 19.9738 27.5571 15.3699 31.8534 11.4279C33.7467 9.70218 35.9307 8.32556 38.3042 7.36187C39.1627 6.95954 40.0992 6.75098 41.0473 6.75098C41.9954 6.75098 42.9319 6.95954 43.7904 7.36187C46.6288 8.99743 47.5686 14.0071 46.2437 20.4368C44.9415 25.8974 42.8097 31.126 39.9226 35.9404C37.1809 40.9716 33.6575 45.5355 29.484 49.4614C27.522 51.2548 25.2451 52.6695 22.7683 53.6342C21.7767 54.0022 20.73 54.2001 19.6725 54.2194V54.2194ZM23.0523 26.1975C20.1626 31.0572 18.0649 36.3458 16.8379 41.865C15.7838 47.4217 16.796 50.7634 18.2676 51.6136C19.7926 52.4962 23.4945 51.6593 27.9895 47.7324C31.9736 43.9713 35.3366 39.6027 37.9534 34.789C40.7193 30.1864 42.7642 25.1875 44.0172 19.966C45.2639 13.9137 44.1869 10.2079 42.6581 9.32722C42.0851 9.10767 41.4728 9.00939 40.8598 9.03859C40.2469 9.06779 39.6467 9.22384 39.0972 9.49687C36.9845 10.3687 35.0421 11.6064 33.3594 13.1531C29.2546 16.9289 25.7795 21.3365 23.0656 26.209L23.0523 26.1975Z" fill="#00D8FF"/>
<path d="M41.3218 54.2443C38.7388 54.2443 35.4582 52.6811 32.0422 49.7436C27.6705 45.7658 23.971 41.1071 21.0869 35.9481C18.0955 30.943 15.9242 25.4914 14.6552 19.8002C14.1049 17.2964 14.003 14.7147 14.3541 12.1752C14.4352 11.2332 14.7221 10.3204 15.1944 9.50127C15.6667 8.68214 16.313 7.97659 17.0876 7.4344C19.9222 5.79311 24.7317 7.48015 29.6403 11.8378C33.7208 15.6926 37.186 20.1504 39.915 25.0558C42.9045 29.9441 45.0986 35.2762 46.4153 40.8529C46.9893 43.4486 47.0778 46.1282 46.6764 48.7562C46.5809 49.7253 46.277 50.6624 45.7854 51.503C45.2938 52.3437 44.6263 53.0681 43.8285 53.6266C43.0625 54.0512 42.1973 54.2644 41.3218 54.2443V54.2443ZM23.0599 34.8005C25.8267 39.7309 29.3606 44.1895 33.529 48.0089C37.8162 51.6975 41.2169 52.4905 42.679 51.6308C44.204 50.7444 45.3287 47.1263 44.1697 41.2722C42.8999 35.948 40.7954 30.8582 37.9344 26.1919C35.3301 21.497 32.0226 17.2284 28.1267 13.5344C23.506 9.43215 19.7583 8.51524 18.2314 9.39974C17.7555 9.78648 17.3649 10.2677 17.0844 10.813C16.8039 11.3583 16.6394 11.9559 16.6015 12.5679C16.2984 14.8327 16.3972 17.1332 16.8932 19.3637C18.1138 24.8063 20.1962 30.0189 23.0618 34.8043L23.0599 34.8005Z" fill="#00D8FF"/>
</svg>
